<svg width="123" height="167" viewBox="0 0 123 167" fill="none" xmlns="http://www.w3.org/2000/svg">
<path d="M9.65665 111.694V118.64H21.7515L7.68652 149.613V150.683H32.2474V143.635H18.0939L32.7899 111.694H9.65665Z" fill="white"/>
<path d="M63.0956 127.649C61.8479 125.973 60.2661 124.624 58.3987 123.644C56.52 122.657 54.4585 122.155 52.2714 122.155C50.3669 122.155 48.5538 122.529 46.8835 123.264C45.2189 123.997 43.7427 125.021 42.4921 126.309C41.2415 127.598 40.2479 129.123 39.537 130.837C38.8231 132.559 38.4634 134.426 38.4634 136.394C38.4634 138.361 38.826 140.231 39.537 141.95C40.2451 143.664 41.2415 145.186 42.4921 146.478C43.7427 147.767 45.2189 148.793 46.8807 149.523C48.551 150.258 50.3641 150.632 52.2685 150.632C54.4556 150.632 56.5171 150.13 58.3959 149.144C60.2661 148.163 61.8479 146.828 63.1013 145.178C63.4411 144.719 63.7638 144.245 64.055 143.766C64.3605 143.268 64.6203 142.734 64.8345 142.187L65.277 141.047H57.7734L57.5336 141.315C56.8541 142.076 56.0546 142.677 55.1552 143.102C54.2643 143.524 53.2936 143.738 52.2657 143.738C51.4119 143.738 50.5925 143.593 49.833 143.305C49.0678 143.017 48.3682 142.609 47.7487 142.093C47.1319 141.58 46.6066 140.958 46.1783 140.245C45.9327 139.835 45.7271 139.401 45.5615 138.951H65.7853L65.9081 138.272C66.0137 137.682 66.0708 137.049 66.0708 136.394C66.0708 135.105 65.9109 133.868 65.5997 132.719C65.0857 130.791 64.2406 129.083 63.0956 127.649ZM58.0304 132.057H46.5009C47.0177 131.327 47.6544 130.703 48.4054 130.195C49.5303 129.437 50.8295 129.049 52.2714 129.049C53.3878 129.049 54.4414 129.3 55.4093 129.793C56.3744 130.287 57.2052 130.974 57.8819 131.835C57.9305 131.909 57.9819 131.983 58.0304 132.057Z" fill="white"/>
<path d="M95.2656 126.355C94.0036 125.069 92.516 124.037 90.84 123.287C89.1554 122.534 87.3366 122.152 85.4321 122.152C83.5277 122.152 81.7089 122.534 80.0243 123.287C78.3482 124.037 76.8664 125.069 75.6215 126.358C74.3737 127.646 73.3744 129.186 72.6492 130.934C71.9211 132.687 71.5527 134.575 71.5527 136.542C71.5527 138.509 71.9239 140.391 72.652 142.127C73.3772 143.858 74.3794 145.386 75.63 146.675C76.8778 147.963 78.3625 148.995 80.0414 149.745C81.7289 150.498 83.5505 150.88 85.4578 150.88C87.0882 150.88 88.6386 150.609 90.0662 150.076C90.9827 149.734 91.8564 149.306 92.6759 148.796V150.523H99.3629V136.539C99.3629 134.575 98.9946 132.687 98.2665 130.931C97.5413 129.186 96.5305 127.646 95.2656 126.355ZM92.6788 136.545C92.6788 137.548 92.4875 138.509 92.1077 139.404C91.7223 140.311 91.1997 141.109 90.5516 141.782C89.9035 142.455 89.1325 142.997 88.2617 143.396C87.4023 143.789 86.46 143.989 85.4607 143.989C84.4613 143.989 83.522 143.789 82.6625 143.396C81.7888 142.997 81.0179 142.452 80.3726 141.782C79.7245 141.109 79.1991 140.311 78.8165 139.404C78.4368 138.512 78.2455 137.548 78.2455 136.545C78.2455 135.507 78.4368 134.529 78.8165 133.634C79.202 132.73 79.7245 131.929 80.3726 131.256C81.0208 130.583 81.7917 130.041 82.6625 129.642C83.522 129.249 84.4642 129.049 85.4607 129.049C86.4572 129.049 87.3994 129.249 88.2617 129.642C89.1325 130.041 89.9035 130.583 90.5516 131.256C91.1997 131.929 91.7251 132.73 92.1077 133.634C92.4875 134.532 92.6788 135.51 92.6788 136.545Z" fill="white"/>
<path d="M113.054 104.33H106.367V150.327H113.054V104.33Z" fill="white"/>
<path d="M13.2916 166.213L9.6226 160.454H8.37771V166.216H7.73242V154.694H10.3992C10.8304 154.694 11.2387 154.757 11.627 154.88C12.0153 155.002 12.3494 155.188 12.6292 155.427C12.909 155.669 13.1317 155.969 13.3002 156.322C13.4658 156.676 13.5514 157.086 13.5514 157.548C13.5514 158.053 13.4743 158.489 13.3173 158.854C13.1603 159.219 12.9404 159.521 12.6549 159.758C12.3694 159.995 12.0324 160.169 11.6441 160.283C11.2558 160.397 10.8304 160.451 10.3678 160.451L14.0682 166.213H13.2916ZM12.6777 156.57C12.5492 156.297 12.3694 156.071 12.1438 155.892C11.9182 155.715 11.6527 155.581 11.3529 155.487C11.0502 155.396 10.7276 155.35 10.3821 155.35H8.37771V159.786H10.5591C11.2472 159.786 11.8069 159.593 12.2323 159.205C12.6577 158.817 12.8719 158.258 12.8719 157.526C12.8719 157.166 12.8062 156.847 12.6777 156.57Z" fill="white"/>
<path d="M18.7051 166.212V154.691H24.2472V155.353H19.3675V159.549H24.2472V160.259H19.3675V165.551H24.2472V166.212H18.7051Z" fill="white"/>
<path d="M36.9813 166.213L35.6565 162.76H30.4057L29.0637 166.213H28.4185L33.024 154.321L37.6466 166.213H36.9813ZM33.0211 156.001L30.6627 162.099H35.3824L33.0211 156.001Z" fill="white"/>
<path d="M41.8613 166.212V154.691H42.5066V165.551H45.756V166.212H41.8613Z" fill="white"/>
<path d="M58.1191 166.212V154.691H63.6613V155.353H58.7816V159.549H63.6613V160.259H58.7816V165.551H63.6613V166.212H58.1191Z" fill="white"/>
<path d="M71.9983 166.117C71.5786 166.268 71.0818 166.342 70.5107 166.342C68.7433 166.342 67.6069 165.509 67.1016 163.841L67.764 163.616C68.1409 164.993 69.0574 165.68 70.5107 165.68C71.3388 165.68 71.9926 165.475 72.4666 165.067C72.952 164.648 73.1947 164.035 73.1947 163.228C73.1947 162.464 72.9092 161.832 72.3381 161.324C72.1868 161.184 71.9555 161.028 71.6443 160.856C71.3302 160.685 70.9333 160.492 70.4479 160.275C69.5314 159.867 68.9061 159.511 68.572 159.211C68.0124 158.727 67.7326 158.088 67.7326 157.29C67.7326 156.494 68.0181 155.853 68.5892 155.371C69.1488 154.875 69.8398 154.63 70.6564 154.63C72.0126 154.63 72.972 155.135 73.5316 156.147L72.9006 156.42C72.6836 156.067 72.4266 155.802 72.124 155.631C71.7471 155.394 71.256 155.274 70.6535 155.274C70.0168 155.274 69.4914 155.451 69.0688 155.807C68.6148 156.184 68.3893 156.68 68.3893 157.293C68.3893 157.84 68.6263 158.319 69.1002 158.73C69.3686 158.943 69.9083 159.234 70.7163 159.602C71.2217 159.827 71.6586 160.052 72.024 160.272C72.3895 160.492 72.6865 160.717 72.912 160.942C73.5373 161.555 73.8485 162.319 73.8485 163.234C73.8571 164.691 73.2375 165.655 71.9983 166.117Z" fill="white"/>
<path d="M80.8699 155.353V166.212H80.2074V155.353H77.6548V154.691H83.4225V155.353H80.8699Z" fill="white"/>
<path d="M94.395 166.213L93.0702 162.76H87.8193L86.4773 166.213H85.832L90.4376 154.321L95.0603 166.213H94.395ZM90.4376 156.001L88.0791 162.099H92.7961L90.4376 156.001Z" fill="white"/>
<path d="M100.683 155.353V166.212H100.02V155.353H97.4678V154.691H103.235V155.353H100.683Z" fill="white"/>
<path d="M107.421 166.212V154.691H112.963V155.353H108.083V159.549H112.963V160.259H108.083V165.551H112.963V166.212H107.421Z" fill="white"/>
<path d="M118.61 88.2329V122L122.913 117.01V85.447L108.546 82.7007V61.6977L82.46 53.0109L80.1158 55.4851V20.5625L59.6664 0.524414L38.5175 20.1592V54.0179L15.8952 62.5042V87.9657L0 91.2068V114.929L4.30288 119.504V93.9506L20.201 90.707V87.0849H20.1981V64.7532L38.5175 57.8825V74.1723L34.2146 74.9343L34.0119 92.961L38.3148 96.4742L38.5175 77.7771L51.0578 75.8844L51.0378 97.4936L55.355 102.704L55.3493 76.4089L60.5258 78.8633V95.9448L64.8287 92.4315V76.8394L61.7707 75.3896V8.07798L75.8072 21.8342V60.0276L68.472 67.7692V100.213L72.7749 104.557V68.9716L81.0038 60.2874L80.8696 99.0573L85.1725 93.6463L85.3067 57.7588L104.237 64.0629V81.8817L104.146 85.4717L118.61 88.2329ZM42.8204 60.1315L51.0492 68.4892V71.953L42.8204 73.4103V60.1315ZM55.355 72.3513V67.2521L42.8204 54.5226V52.3998V21.4829L57.4707 7.88252V73.3533L55.355 72.3513Z" fill="white"/>
</svg>
