<svg width="38" height="39" viewBox="0 0 38 39" fill="none" xmlns="http://www.w3.org/2000/svg">
<path d="M37.6494 36.1293L27.8358 26.4401C30.4057 23.6386 31.9847 19.9337 31.9847 15.8567C31.9834 7.13542 24.824 0.0664062 15.9917 0.0664062C7.15944 0.0664062 0 7.13542 0 15.8567C0 24.578 7.15944 31.647 15.9917 31.647C19.8079 31.647 23.308 30.3227 26.0573 28.1209L35.9089 37.8482C36.3889 38.3227 37.1683 38.3227 37.6483 37.8482C38.1294 37.3738 38.1294 36.6037 37.6494 36.1293ZM15.9917 29.2176C8.51865 29.2176 2.46055 23.2358 2.46055 15.8567C2.46055 8.47769 8.51865 2.49584 15.9917 2.49584C23.4649 2.49584 29.5229 8.47769 29.5229 15.8567C29.5229 23.2358 23.4649 29.2176 15.9917 29.2176Z" fill="#12B7B6"/>
</svg>
