<svg width="103" height="183" viewBox="0 0 103 183" fill="none" xmlns="http://www.w3.org/2000/svg">
<path fill-rule="evenodd" clip-rule="evenodd" d="M28.8318 150.22L29.2133 149.455L29.6903 150.364C30.8826 154.619 38.5135 156.245 40.5166 149.838C41.375 150.746 41.7566 152.085 42.9012 152.946C45.8105 155.097 51.009 154.332 51.9629 149.79L52.3921 150.316C53.3936 151.607 53.1075 152.037 54.2998 152.946C59.9276 157.297 63.8384 149.838 63.9338 149.79C64.4584 152.324 66.4615 154.285 69.7046 154.141C71.0877 154.093 72.3754 153.472 73.1862 152.802C74.3785 151.798 74.1877 151.033 75.3324 149.838C76.8586 155.958 85.2048 155.002 86.111 150.22L86.4448 149.503L86.9694 150.412C88.7341 155.432 95.6496 155.337 97.605 150.459L97.8911 149.551L98.4157 150.268C99.6081 155.623 107.477 155.337 109.385 149.647C110.625 151.655 110.482 152.611 112.724 153.615C118.971 156.293 123.502 149.073 118.828 144.196L118.018 143.287C119.448 142.618 120.831 140.849 120.593 138.314C120.307 135.541 118.161 135.015 117.922 134.059C117.874 133.963 117.779 133.915 117.731 133.868C121.499 130.329 121.547 127.413 117.207 124.305C118.638 122.87 120.402 122.296 120.211 119.188C120.068 116.798 118.494 115.363 116.539 114.742C117.016 114.263 116.444 114.789 117.207 114.168C120.641 111.586 121.499 107.617 117.111 105.418L116.062 104.844C116.014 104.7 115.871 104.748 115.776 104.7C118.065 104.031 120.021 102.692 119.782 99.7277C119.591 97.3847 117.636 95.5678 115.156 95.5199C109.242 95.4721 108.765 103.218 114.536 104.748L112.962 105.561C112.485 105.848 112.056 106.087 111.674 106.47C110.864 107.235 110.244 108.191 110.196 109.578C110.101 112.972 112.199 113.355 113.725 114.742C105.808 117.419 112.581 124.687 112.819 124.305C112.867 124.209 112.962 124.448 113.057 124.544C109.671 125.835 107.954 129.803 112.533 133.915C111.388 135.254 109.671 135.732 109.576 138.697C109.528 141.183 110.768 142.761 112.199 143.431C111.436 144.435 111.341 144.052 110.53 145.152L109.242 147.208C108.813 146.347 108.527 145.726 108.002 145.104L106.476 143.287C108.956 142.187 110.053 138.267 108.097 135.78C107.859 135.493 107.43 135.111 107.191 134.824L106.19 133.868C107.668 132.72 109.051 131.429 108.908 128.751C108.717 126.122 107.239 125.5 105.76 124.305C105.808 124.209 105.951 124.161 105.999 124.113L107.907 122.249C108.622 121.244 108.86 120.193 108.67 118.806C108.431 117.037 107.477 116.176 106.19 115.22L105.045 114.359C107.144 113.785 108.765 112.207 108.479 109.291C108.097 105.705 105.284 106.231 104.854 104.844C104.807 104.653 104.664 104.7 104.568 104.605C110.434 103.505 109.051 95.3765 103.376 95.6156C98.368 95.8068 96.6988 103.027 102.851 104.7L101.993 105.274C97.9865 107.761 96.8896 112.59 102.279 114.455C100.514 115.937 98.7019 115.985 98.5111 119.188C98.3204 122.44 99.9419 122.488 101.516 124.352C99.8465 125.5 98.4157 126.648 98.3204 129.134C98.2727 131.859 99.6558 132.768 101.039 133.915C99.7988 135.302 98.225 135.637 98.0819 138.697C97.9865 141.183 99.2742 142.809 100.705 143.478L97.8434 147.399C96.4603 144.722 97.0803 145.582 95.0295 143.718C97.128 141.614 98.7496 138.888 96.6988 135.78C96.3173 135.206 95.1249 134.68 94.9818 134.107C94.9342 133.963 94.8388 133.963 94.7434 133.915C96.2219 132.577 97.605 131.572 97.4142 128.799C97.2711 126.648 95.6972 125.213 94.2188 124.352C95.3634 123.109 97.4142 122.583 97.2234 119.188C97.0803 116.606 95.5065 115.363 93.4557 114.694C95.1249 113.403 97.1757 112.972 97.0326 109.625C96.985 108.334 96.4126 107.235 95.7449 106.565C95.268 106.087 95.0772 106.039 94.4572 105.657L92.8834 104.653C99.1788 103.027 97.3188 95.2809 91.9772 95.5199C86.6833 95.759 85.3956 103.218 91.4049 104.653L89.831 105.657C85.8725 107.952 86.6833 112.781 90.8326 114.503C89.1633 115.746 87.2556 116.08 87.0648 119.188C86.8741 122.631 88.9249 123.014 90.0695 124.352C85.9202 126.791 85.9202 131.142 89.6403 133.915C88.6387 135.015 88.5433 134.394 87.6371 135.78C85.8725 138.458 87.0648 141.948 89.2587 143.574C87.6848 145.009 87.4464 145.2 86.5879 147.256C86.5402 147.16 86.4448 147.065 86.3971 147.017L83.5832 143.813C88.5433 138.362 85.7294 136.784 83.2494 133.915C86.9218 130.999 86.9694 127.078 82.7725 124.352C84.0125 122.87 86.0156 122.535 85.7771 119.188C85.5863 116.511 84.0125 115.507 82.0094 114.694C83.6309 113.355 85.8725 112.733 85.5387 109.291C85.2048 106.231 83.2971 105.991 81.1986 104.748C87.6848 102.788 85.8725 95.7112 80.9125 95.5199C78.3847 95.4243 76.2385 97.2413 76.0001 99.632C75.7139 102.883 77.5739 103.983 79.9586 104.653C78.0032 106.183 75.9047 106.278 75.7616 109.578C75.6662 112.542 77.4309 113.498 79.2909 114.55C77.3832 115.268 75.7139 116.654 75.5231 119.093C75.3324 121.962 77.1447 122.822 78.5278 124.257C77.0016 125.452 75.5231 126.074 75.3324 128.704C75.1416 131.19 76.6678 132.816 78.0509 133.82C76.6678 135.206 75.1893 136.45 75.0939 138.649C74.9985 141.088 76.2862 142.522 77.7647 143.192C77.0493 144.53 77.8124 143.239 77.1924 144.052C77.097 144.148 76.8586 144.387 76.8109 144.483C76.6201 144.674 76.3816 144.865 76.0955 145.2C75.3324 146.156 75.4278 146.204 75.1416 147.256L74.2354 145.965C73.997 145.534 73.997 145.439 73.7108 145.009C72.9954 144.004 72.8047 144.243 72.0416 143.335C73.5677 142.618 74.8554 140.896 74.617 138.219C74.3785 135.541 72.8523 135.111 71.7077 133.772C75.3801 130.521 75.7139 126.265 71.1831 124.4L71.66 123.922C73.1385 122.535 74.3785 121.388 74.2831 119.045C74.1401 116.559 72.5185 115.268 70.5631 114.598C72.2323 113.068 74.4262 112.494 74.0924 109.099C73.8062 106.183 71.6123 105.848 69.8 104.605C76.1432 102.788 74.617 95.3287 69.18 95.3765C63.9815 95.4243 62.2645 102.931 68.6077 104.557L68.0831 104.892C67.9877 104.94 67.8923 104.987 67.7969 105.035L65.7938 106.326C65.1738 106.9 64.5061 108.239 64.4584 109.482C64.363 112.399 66.3661 112.972 67.94 114.694C65.9846 115.268 64.4107 116.75 64.2676 119.093C64.1245 121.818 65.7938 122.679 67.2246 124.209C65.7461 125.404 64.1245 126.074 64.0769 128.99C64.0292 131.572 65.5076 132.481 66.7953 133.772C66.7477 133.82 66.6523 133.915 66.6046 133.963C66.5569 134.011 66.4615 134.107 66.4138 134.154C63.3138 137.071 62.4553 141.327 66.5092 143.239L65.5553 144.339C64.6492 145.248 64.2199 145.965 63.9338 147.256L60.8337 143.287C62.3122 142.618 63.6953 140.849 63.4568 138.267C63.2661 136.067 61.9307 135.111 60.5476 133.772C61.9784 132.433 63.5045 131.572 63.2661 128.608C63.0276 125.835 61.6445 125.357 60.1183 124.161C60.4999 123.779 60.1183 124.161 60.7383 123.587C63.0276 121.531 64.2199 118.71 61.7399 115.985L59.4029 114.168C64.4107 112.59 63.8861 105.657 59.0214 105.083L56.9706 105.035C54.8244 105.465 53.1075 107.139 53.1075 109.769C53.1552 112.686 55.206 113.164 56.6368 114.55C52.7736 115.889 51.9629 119.475 53.8229 122.057C54.6337 123.253 55.0629 123.3 55.9214 124.113C51.6767 127.173 51.4382 130.042 55.4921 133.676C54.3952 135.063 52.6782 135.685 52.5829 138.458C52.4875 141.279 54.2044 142.331 55.1583 143.622C53.2029 144.435 53.8706 144.674 52.4875 146.634L52.0582 147.16C51.8675 146.204 51.5336 145.534 50.9613 144.865L49.4351 143.096C50.9613 142.426 52.249 140.657 52.0582 138.171C51.8198 135.876 50.5321 135.111 49.149 133.724C50.5321 132.672 52.0582 131.142 51.8675 128.608C51.629 126.026 50.2936 125.357 48.7674 124.161C49.9121 123.014 52.0582 121.962 51.6767 118.758C51.3428 116.033 49.2444 115.268 48.052 114.168C50.1982 113.594 51.9152 111.538 51.4382 108.765C50.9136 105.8 49.3397 105.896 47.0505 104.653C49.5305 103.983 51.3905 102.931 51.2952 99.8711C51.2475 97.3369 49.1013 95.4721 46.7166 95.3765C41.375 95.2331 39.7058 103.027 45.8582 104.461C44.8089 105.418 44.0458 105.322 43.0443 106.47C38.9904 111.012 44.9043 114.216 45.2858 114.55C43.2827 115.076 41.7089 116.559 41.5658 119.045C41.375 121.962 42.8535 122.727 44.1889 123.826L44.5705 124.209C42.9489 125.357 41.4227 126.456 41.375 129.038C41.3273 131.812 42.7104 132.624 44.0935 133.82C42.9489 135.206 41.2319 135.589 41.1366 138.601C41.0889 141.805 42.615 142.331 43.712 143.765C41.6612 144.913 41.7089 146.108 40.7073 147.256C40.135 145.343 39.6581 145.295 38.8473 144.291L37.8458 143.144C41.4704 141.422 41.1843 137.071 38.4181 134.537L37.6073 133.772C39.0858 132.577 40.4689 131.333 40.2781 128.656C40.0873 126.074 38.6088 125.404 37.0827 124.209C38.4181 122.775 40.2781 122.296 40.0873 119.045C39.9442 116.415 38.275 115.411 36.3196 114.503C38.1796 113.259 40.2304 112.59 39.8489 109.147C39.515 106.087 37.5596 105.896 35.4134 104.653C42.1858 102.883 39.9919 95.5199 35.1273 95.3765C32.5041 95.2809 30.501 97.3369 30.3103 99.5364C30.0718 102.501 31.9318 103.983 34.2211 104.509L31.3595 106.422C29.3564 108.669 29.3087 112.59 33.6011 114.311C31.9318 115.65 30.0718 115.746 29.881 118.997C29.6903 122.392 31.7888 122.822 32.8857 124.161C28.4979 126.934 28.7364 130.951 32.3611 133.724C31.598 134.537 31.1211 134.489 30.4057 135.637C28.641 138.362 29.3564 141.422 32.0749 143.383C31.0734 144.339 30.1195 145.104 29.6426 146.634L29.3564 147.495L28.8318 146.682C28.4979 145.152 27.3533 144.291 26.3995 143.335C27.9256 142.522 29.2133 140.562 28.9749 138.123C28.6887 135.302 27.1625 135.015 26.0656 133.676C29.9287 130.616 29.9287 127.03 25.5887 124.113C26.6856 122.87 28.7841 122.296 28.5933 118.949C28.4503 116.463 26.7333 115.076 24.8256 114.455C26.4948 113.164 28.5456 112.638 28.4026 109.338C28.2595 106.087 25.2548 105.37 24.301 104.557C30.5487 102.692 28.7364 95.3765 23.3948 95.4243C18.387 95.4721 16.4793 103.027 22.8225 104.605C22.3456 104.987 22.8702 104.653 22.0117 105.131C21.5348 105.418 21.7256 105.274 21.2486 105.561C19.8178 106.374 18.6732 107.378 18.6255 109.53C18.5778 112.446 19.9609 113.546 22.2025 114.407C20.3902 115.554 18.6255 116.415 18.4347 119.093C18.1963 122.392 20.104 122.775 21.4394 124.257C17.4332 127.269 16.7655 130.377 20.9625 133.82L20.3425 134.394C16.6701 137.741 17.6717 141.805 20.6763 143.192C20.0563 144.435 19.8655 144.1 19.0071 145.2C18.3871 146.013 18.3394 146.3 18.0532 147.16C18.0055 147.065 17.9101 146.969 17.8624 146.921C15.7162 143.622 16.8609 145.582 15.0009 143.335C16.4793 142.522 17.8147 140.896 17.5286 138.219C17.2901 135.637 15.7162 135.063 14.6193 133.772C18.4347 130.521 18.5778 127.126 14.1901 124.209C15.3824 122.775 17.3378 122.105 17.147 119.093C17.004 116.606 15.4301 115.268 13.427 114.646C15.0485 113.116 17.2901 112.59 16.9563 109.147C16.7655 107.043 15.3347 106.039 13.9993 105.37L12.6639 104.653C19.1978 102.931 17.3378 95.3765 12.0439 95.4721C7.08383 95.5678 4.98534 102.788 11.4716 104.653L9.85002 105.513C5.98689 107.569 6.36844 112.925 10.7085 114.263C9.94541 114.885 8.94385 115.315 8.13307 116.272C4.65149 120.384 9.56386 123.683 10.0408 124.209C8.37154 125.404 7.08383 126.074 6.79767 128.656C6.55921 131.668 8.08538 132.338 9.51617 133.772L7.46537 135.828C5.89151 138.028 6.46382 141.757 9.18232 143.239C8.75308 143.909 9.08693 143.383 8.61 143.909C8.51462 144.004 8.27615 144.196 8.22846 144.291C5.2715 147.304 6.12997 151.177 8.6577 152.994C10.8516 154.619 14.7147 154.524 16.6224 151.989L17.9101 149.886C18.8163 151.511 18.4824 151.559 19.9132 152.707C23.3471 155.528 28.1641 153.663 28.8318 150.22Z" fill="black"/>
<path fill-rule="evenodd" clip-rule="evenodd" d="M56.5413 104.462H59.3551C61.4059 103.458 62.9321 102.215 62.5506 99.2981C62.2644 97.0508 60.4044 95.4729 57.9243 95.425C52.7735 95.3772 51.152 102.358 56.5413 104.462Z" fill="black"/>
<path fill-rule="evenodd" clip-rule="evenodd" d="M107.955 91.8375C110.149 86.3388 101.516 83.4699 99.5607 88.6817C97.4622 94.2282 105.761 97.4318 107.955 91.8375Z" fill="black"/>
<path fill-rule="evenodd" clip-rule="evenodd" d="M96.5078 91.8374C98.4632 85.8606 89.7831 83.9001 88.0662 88.6338C85.8723 94.7542 94.8386 97.0493 96.5078 91.8374Z" fill="black"/>
<path fill-rule="evenodd" clip-rule="evenodd" d="M50.6754 91.8375C52.8216 86.3388 44.2845 83.4699 42.2814 88.6817C40.1829 94.1804 48.4815 97.4318 50.6754 91.8375Z" fill="black"/>
<path fill-rule="evenodd" clip-rule="evenodd" d="M7.65678 91.0739C8.41986 96.5248 17.3861 95.5685 16.5276 89.6395C15.7168 84.1886 6.79831 84.858 7.65678 91.0739Z" fill="black"/>
<path fill-rule="evenodd" clip-rule="evenodd" d="M62.1697 91.8379C64.5067 86.1479 55.445 83.9484 53.728 88.7299C51.6295 94.4677 59.9758 97.1932 62.1697 91.8379Z" fill="black"/>
<path fill-rule="evenodd" clip-rule="evenodd" d="M76.3826 91.073C77.098 96.2371 86.1119 95.7111 85.2535 89.5908C84.4904 84.1398 75.5241 84.9049 76.3826 91.073Z" fill="black"/>
<path fill-rule="evenodd" clip-rule="evenodd" d="M30.5973 91.0722C31.2173 96.284 40.2313 95.6624 39.4205 89.6856C38.7051 84.0913 29.8342 84.8564 30.5973 91.0722Z" fill="black"/>
<path fill-rule="evenodd" clip-rule="evenodd" d="M19.1499 91.0738C19.8653 96.2856 28.8316 95.7119 28.0208 89.5915C27.2101 84.2363 18.2915 84.8579 19.1499 91.0738Z" fill="black"/>
<path fill-rule="evenodd" clip-rule="evenodd" d="M65.0307 91.455C66.223 96.5234 75.1415 95.2323 73.7584 89.3033C72.5661 84.187 63.5999 85.2868 65.0307 91.455Z" fill="black"/>
<path fill-rule="evenodd" clip-rule="evenodd" d="M16.051 82.2275C18.3879 77.1591 10.3755 73.9555 8.22936 78.7848C5.70165 84.4749 13.8571 87.0569 16.051 82.2275Z" fill="black"/>
<path fill-rule="evenodd" clip-rule="evenodd" d="M73.3294 82.2279C75.5709 76.9205 67.5586 74.1951 65.4601 78.7853C62.837 84.6187 71.374 86.8659 73.3294 82.2279Z" fill="black"/>
<path fill-rule="evenodd" clip-rule="evenodd" d="M53.7275 81.5108C54.0613 83.5668 56.3029 85.2882 58.926 84.7144C60.9768 84.2841 62.5506 82.4671 62.1214 79.8372C61.3106 74.721 52.6782 75.486 53.7275 81.5108Z" fill="black"/>
<path fill-rule="evenodd" clip-rule="evenodd" d="M76.7165 81.8918C78.1473 87.008 86.4459 84.9998 84.9674 79.501C84.4428 77.4928 82.1535 76.0105 79.7688 76.5365C77.7657 76.9668 76.0011 79.262 76.7165 81.8918Z" fill="black"/>
<path fill-rule="evenodd" clip-rule="evenodd" d="M88.1623 81.892C89.4977 86.9126 98.0347 85.0478 96.3655 79.4534C94.887 74.3851 86.6838 76.1064 88.1623 81.892Z" fill="black"/>
<path fill-rule="evenodd" clip-rule="evenodd" d="M99.6086 81.8919C101.039 86.9125 109.433 85.0477 107.812 79.4055C106.429 74.5283 97.9393 76.0584 99.6086 81.8919Z" fill="black"/>
<path fill-rule="evenodd" clip-rule="evenodd" d="M42.2825 81.5096C43.141 86.4824 51.8211 85.5739 50.6765 79.6926C49.6749 74.7197 41.2332 75.6282 42.2825 81.5096Z" fill="black"/>
<path fill-rule="evenodd" clip-rule="evenodd" d="M30.931 81.8933C32.4095 86.9618 40.6127 85.0491 39.1342 79.407C37.8942 74.6732 29.214 76.1077 30.931 81.8933Z" fill="black"/>
<path fill-rule="evenodd" clip-rule="evenodd" d="M19.3418 81.51C20.2003 86.4349 28.7849 85.5742 27.7834 79.7408C27.4018 77.5891 25.1603 76.059 22.8233 76.4416C20.7249 76.8241 18.9126 78.9279 19.3418 81.51Z" fill="black"/>
<path fill-rule="evenodd" clip-rule="evenodd" d="M107.573 72.2815C109.576 67.4044 101.85 64.7267 99.9898 69.1735C97.7959 74.3854 105.475 77.4456 107.573 72.2815Z" fill="black"/>
<path fill-rule="evenodd" clip-rule="evenodd" d="M88.5919 72.665C90.8335 77.2074 98.1306 74.3385 95.9844 69.1745C94.0767 64.6321 86.0642 67.5488 88.5919 72.665Z" fill="black"/>
<path fill-rule="evenodd" clip-rule="evenodd" d="M38.8481 72.2822C40.7081 66.9748 33.0296 65.0621 31.2649 69.1743C28.9757 74.6252 37.1312 77.2072 38.8481 72.2822Z" fill="black"/>
<path fill-rule="evenodd" clip-rule="evenodd" d="M50.3413 72.281C52.3921 67.4517 44.3797 64.4872 42.6628 69.5077C40.8981 74.5283 48.1951 77.3015 50.3413 72.281Z" fill="black"/>
<path fill-rule="evenodd" clip-rule="evenodd" d="M76.8593 71.948C78.0516 76.9208 86.1595 75.2951 84.7764 69.7963C84.2994 67.9316 82.2963 66.4971 79.8163 67.0231C77.9085 67.4534 76.287 69.4616 76.8593 71.948Z" fill="black"/>
<path fill-rule="evenodd" clip-rule="evenodd" d="M53.9663 71.9477C55.111 76.8726 63.2188 75.4381 61.8357 69.8916C60.7864 65.397 52.6786 66.3055 53.9663 71.9477Z" fill="black"/>
<path fill-rule="evenodd" clip-rule="evenodd" d="M8.03867 71.5653C8.61098 76.4903 17.1003 75.8687 16.0988 70.1309C15.288 65.4928 7.41866 66.1622 8.03867 71.5653Z" fill="black"/>
<path fill-rule="evenodd" clip-rule="evenodd" d="M19.628 71.9474C20.5818 76.3463 28.5465 75.5813 27.5926 70.1305C26.6865 65.2057 18.388 66.162 19.628 71.9474Z" fill="black"/>
<path fill-rule="evenodd" clip-rule="evenodd" d="M61.6449 62.337C63.1234 57.2209 55.4448 55.4039 54.2048 60.0897C52.774 65.4928 60.3572 66.8316 61.6449 62.337Z" fill="black"/>
<path fill-rule="evenodd" clip-rule="evenodd" d="M15.6688 62.7182C17.6242 57.7454 10.2318 55.3547 8.51482 59.6102C6.46402 64.7742 13.9518 67.1171 15.6688 62.7182Z" fill="black"/>
<path fill-rule="evenodd" clip-rule="evenodd" d="M38.6098 62.7183C40.756 57.9368 33.1728 55.3547 31.4082 59.706C29.4528 64.5353 36.559 67.2608 38.6098 62.7183Z" fill="black"/>
<path fill-rule="evenodd" clip-rule="evenodd" d="M99.895 62.0024C100.61 66.5448 108.432 65.8276 107.526 60.568C106.667 55.6908 99.1319 56.7428 99.895 62.0024Z" fill="black"/>
<path fill-rule="evenodd" clip-rule="evenodd" d="M27.1631 62.7193C29.3093 57.6987 21.6784 55.6905 20.0092 59.6591C17.9107 64.6319 25.2554 67.1183 27.1631 62.7193Z" fill="black"/>
<path fill-rule="evenodd" clip-rule="evenodd" d="M88.5433 62.3358C89.6402 66.687 97.2711 65.4438 95.9834 60.2798C94.9341 55.8331 87.2079 56.9806 88.5433 62.3358Z" fill="black"/>
<path fill-rule="evenodd" clip-rule="evenodd" d="M42.6629 62.0011C43.426 66.6392 51.0092 65.5873 50.2938 60.5667C49.6261 55.9287 41.8044 56.6937 42.6629 62.0011Z" fill="black"/>
<path fill-rule="evenodd" clip-rule="evenodd" d="M38.466 52.7738C40.2307 48.0402 33.1244 46.0319 31.5983 50.0006C29.6905 55.1645 36.9399 56.9815 38.466 52.7738Z" fill="black"/>
<path fill-rule="evenodd" clip-rule="evenodd" d="M107.144 53.2513C109.243 48.8524 102.47 45.6966 100.467 49.7608C99.4655 51.8169 100.419 54.112 102.184 54.8292C104.759 55.8334 106.81 53.9208 107.144 53.2513Z" fill="black"/>
<path fill-rule="evenodd" clip-rule="evenodd" d="M54.3484 52.438C55.3022 56.8848 62.5993 55.5938 61.5024 50.7167C60.5485 46.4134 53.2514 47.4175 54.3484 52.438Z" fill="black"/>
<path fill-rule="evenodd" clip-rule="evenodd" d="M42.9969 52.7742C44.2846 56.9341 51.534 55.1649 49.9124 50.2877C48.577 46.1756 41.423 47.8013 42.9969 52.7742Z" fill="black"/>
<path fill-rule="evenodd" clip-rule="evenodd" d="M8.5149 52.4399C9.37337 56.4563 16.8134 55.8825 15.6211 50.6707C14.6195 45.9849 7.51336 47.7062 8.5149 52.4399Z" fill="black"/>
<path fill-rule="evenodd" clip-rule="evenodd" d="M95.7454 52.7729C97.4623 47.9436 90.2607 46.2222 88.8776 49.9996C87.0176 55.068 94.3146 56.8372 95.7454 52.7729Z" fill="black"/>
<path fill-rule="evenodd" clip-rule="evenodd" d="M19.9619 52.4382C20.725 56.4546 28.2128 55.7852 27.1158 50.669C26.2574 46.557 18.9603 47.322 19.9619 52.4382Z" fill="black"/>
<path fill-rule="evenodd" clip-rule="evenodd" d="M8.89679 43.2112C10.566 47.132 17.2907 44.9325 15.2876 40.3901C13.6184 36.7083 6.94138 38.7165 8.89679 43.2112Z" fill="black"/>
<path fill-rule="evenodd" clip-rule="evenodd" d="M26.7824 43.21C28.5471 39.0024 22.2516 36.5639 20.4392 40.2456C18.3407 44.501 24.9701 47.4655 26.7824 43.21Z" fill="black"/>
<path fill-rule="evenodd" clip-rule="evenodd" d="M43.045 42.4931C43.7127 46.8443 50.7713 45.8402 49.8651 41.1065C49.102 37.09 42.3296 37.7116 43.045 42.4931Z" fill="black"/>
<path fill-rule="evenodd" clip-rule="evenodd" d="M88.8784 42.4923C89.4507 46.7478 96.6046 45.9827 95.6985 41.1535C94.8877 37.0892 88.2107 37.7108 88.8784 42.4923Z" fill="black"/>
<path fill-rule="evenodd" clip-rule="evenodd" d="M54.7295 43.2101C56.351 47.2266 62.8849 44.8836 61.1203 40.4369C59.6418 36.7073 52.9172 38.7634 54.7295 43.2101Z" fill="black"/>
<path fill-rule="evenodd" clip-rule="evenodd" d="M100.324 42.4933C100.944 46.5098 108.05 45.936 107.144 41.1067C106.286 36.8989 99.6086 37.8552 100.324 42.4933Z" fill="black"/>
<path fill-rule="evenodd" clip-rule="evenodd" d="M102.757 29.1054C98.56 30.3964 100.468 36.5645 104.855 35.1779C106.429 34.6997 107.526 32.7871 106.715 30.8267C106.143 29.3444 104.378 28.5794 102.757 29.1054Z" fill="black"/>
<path fill-rule="evenodd" clip-rule="evenodd" d="M22.6801 29.0563C18.5308 30.2517 20.2478 36.4198 24.5878 35.1766C28.4985 34.1247 26.9724 27.8132 22.6801 29.0563Z" fill="black"/>
<path fill-rule="evenodd" clip-rule="evenodd" d="M11.0908 29.2002C6.65537 30.9694 9.27849 36.5637 13.3801 35.0814C16.9094 33.8382 15.2878 27.4789 11.0908 29.2002Z" fill="black"/>
<path fill-rule="evenodd" clip-rule="evenodd" d="M45.3336 29.2949C44.332 29.7252 43.9028 29.3905 43.3782 30.8728C42.2336 34.172 45.4767 36.1803 47.909 35.0327C51.486 33.3114 49.3398 27.6214 45.3336 29.2949Z" fill="black"/>
<path fill-rule="evenodd" clip-rule="evenodd" d="M56.9232 29.1521C52.4401 30.6821 55.1109 36.5634 59.0694 35.1767C62.694 33.8857 61.1202 27.6698 56.9232 29.1521Z" fill="black"/>
<path fill-rule="evenodd" clip-rule="evenodd" d="M103.137 19.4941C98.988 20.3547 100.419 26.4751 104.759 25.3275C108.097 24.4669 107.144 18.6812 103.137 19.4941Z" fill="black"/>
<path fill-rule="evenodd" clip-rule="evenodd" d="M45.6204 19.6372C41.5665 20.9761 43.522 26.427 47.4328 25.3272C51.0097 24.3231 49.722 18.2984 45.6204 19.6372Z" fill="black"/>
<path fill-rule="evenodd" clip-rule="evenodd" d="M22.8233 19.5894C18.4833 20.8804 20.6772 26.5704 24.6357 25.2794C27.9265 24.2752 26.6865 18.394 22.8233 19.5894Z" fill="black"/>
<path fill-rule="evenodd" clip-rule="evenodd" d="M57.0182 19.686C52.4874 21.3117 55.5397 26.7147 59.069 25.2324C62.4076 23.8936 60.7383 18.3472 57.0182 19.686Z" fill="black"/>
<path fill-rule="evenodd" clip-rule="evenodd" d="M22.2024 10.2667C19.007 12.0837 21.2486 17.0086 24.9209 15.2394C28.0686 13.7094 25.684 8.3063 22.2024 10.2667Z" fill="black"/>
<path fill-rule="evenodd" clip-rule="evenodd" d="M102.375 10.3137C99.3701 12.2742 101.564 16.6732 105.046 15.3344C108.48 14.0433 105.713 8.11416 102.375 10.3137Z" fill="black"/>
<path fill-rule="evenodd" clip-rule="evenodd" d="M22.9179 0.320314C19.341 1.42003 20.7718 6.48829 24.3964 5.57983C27.8302 4.71918 26.5425 -0.779402 22.9179 0.320314Z" fill="#ED1C24"/>
<path fill-rule="evenodd" clip-rule="evenodd" d="M56.8758 105.13L58.9266 105.178L59.3558 104.461H56.542L56.8758 105.13Z" fill="black"/>
<path fill-rule="evenodd" clip-rule="evenodd" d="M29.6907 146.682L28.8799 146.729L29.4045 147.59L29.6907 146.682Z" fill="black"/>
<path fill-rule="evenodd" clip-rule="evenodd" d="M97.606 150.412L98.4167 150.221L97.8921 149.504L97.606 150.412Z" fill="black"/>
<path fill-rule="evenodd" clip-rule="evenodd" d="M28.832 150.22L29.6904 150.364L29.2135 149.455L28.832 150.22Z" fill="black"/>
<path fill-rule="evenodd" clip-rule="evenodd" d="M86.1113 150.172L86.9698 150.364L86.4452 149.455L86.1113 150.172Z" fill="black"/>
<path d="M15.9076 168.869C15.4783 167.387 14.6199 166.191 13.3799 165.283C12.1398 164.374 10.709 163.896 9.08749 163.896C7.99055 163.896 7.08439 164.183 6.41669 164.709C5.74899 165.235 5.41514 166 5.41514 166.909C5.41514 167.578 5.79668 168.247 6.51207 168.869C7.22747 169.491 8.41979 170.112 10.0413 170.782C12.8552 171.977 14.8106 173.077 15.9076 173.985C17.0045 174.941 17.5291 176.041 17.5291 177.284C17.5291 178.958 16.766 180.249 15.2399 181.253C13.7137 182.209 11.6629 182.735 9.0398 182.735C7.60901 182.735 6.22592 182.448 4.89052 181.923C4.3182 181.683 3.88897 181.636 3.50742 181.683C3.12588 181.779 2.83972 181.97 2.64895 182.353L2.50587 182.592H1.55201L0.455078 176.424H1.36124C1.93356 177.906 2.93511 179.149 4.36589 180.106C5.79668 181.062 7.32285 181.54 8.9921 181.54C10.4229 181.54 11.5675 181.205 12.426 180.584C13.2845 179.962 13.7137 179.101 13.7137 178.002C13.7137 177.332 13.2845 176.615 12.3306 175.946C11.4244 175.276 9.94596 174.511 7.94286 173.65C5.74899 172.742 4.12743 171.786 3.07819 170.877C2.02894 169.921 1.50432 168.965 1.50432 168.008C1.50432 166.478 2.17202 165.187 3.45973 164.231C4.74744 163.227 6.41669 162.749 8.46748 162.749C9.94596 162.749 11.4244 163.035 12.8075 163.561C13.2368 163.705 13.6183 163.753 14.0476 163.657C14.4768 163.561 14.7629 163.418 14.9537 163.131L15.1922 162.749H16.146L16.9091 168.917H15.9076V168.869ZM32.9816 182.783C29.357 182.783 26.3523 181.827 24.0631 179.962C21.7261 178.097 20.5815 175.707 20.5815 172.742C20.5815 169.777 21.7261 167.387 24.0631 165.522C26.4 163.657 29.357 162.701 32.9816 162.701C36.6063 162.701 39.6109 163.657 41.9479 165.522C44.2371 167.387 45.4295 169.825 45.4295 172.742C45.4295 175.659 44.2848 178.097 41.9479 179.962C39.6109 181.827 36.654 182.783 32.9816 182.783ZM32.9816 181.54C35.414 181.54 37.3217 180.775 38.7525 179.197C40.1833 177.619 40.8986 175.467 40.8986 172.79C40.8986 170.112 40.1833 167.96 38.7525 166.383C37.3217 164.805 35.414 164.04 32.9816 164.04C30.5493 164.04 28.6416 164.805 27.2108 166.383C25.78 167.96 25.0646 170.112 25.0646 172.79C25.0646 175.515 25.78 177.619 27.2108 179.197C28.6416 180.727 30.5493 181.54 32.9816 181.54ZM50.8665 178.097V167.434C50.8665 165.952 50.6757 164.996 50.2464 164.566C49.8649 164.135 48.9111 163.896 47.4326 163.801V163.131H52.8696H57.4958C60.882 163.131 63.4574 163.561 65.1743 164.422C66.939 165.283 67.7974 166.574 67.7974 168.247C67.7974 169.825 66.8913 171.068 65.0312 171.977C64.6974 172.168 64.2682 172.312 63.8389 172.455C64.602 172.646 65.3174 172.933 65.9374 173.22C68.0359 174.224 69.0851 175.467 69.0851 177.045C69.0851 178.958 68.179 180.297 66.4143 181.11C64.6497 181.923 61.6451 182.353 57.4481 182.353H52.8219H47.4803V181.636C48.9587 181.54 49.9126 181.301 50.2941 180.871C50.6757 180.536 50.8665 179.58 50.8665 178.097ZM54.9204 165.952V171.881H57.8773C59.785 171.881 61.2635 171.547 62.3604 170.877C63.4574 170.208 63.982 169.251 63.982 168.104C63.982 166.956 63.4574 166 62.3604 165.331C61.2635 164.661 59.785 164.327 57.8773 164.327H57.1619C56.2558 164.327 55.6357 164.422 55.3496 164.661C55.0634 164.852 54.9204 165.283 54.9204 165.952ZM54.9204 173.22V179.484C54.9204 180.201 55.0634 180.632 55.3019 180.823C55.5404 181.014 56.1604 181.11 57.0665 181.11H57.4958C59.9281 181.11 61.6927 180.775 62.8374 180.153C63.982 179.532 64.5543 178.528 64.5543 177.189C64.5543 175.898 63.982 174.894 62.8374 174.224C61.6927 173.555 59.9758 173.22 57.7819 173.22H54.9204ZM74.9514 178.097V167.434C74.9514 165.952 74.7606 164.996 74.3791 164.566C73.9975 164.135 73.0436 163.896 71.5652 163.848V163.179H77.0022H82.4391V163.848C80.9607 163.944 80.0068 164.087 79.6253 164.422C79.2437 164.709 79.0053 165.378 79.0053 166.43V172.216H90.1177V166.43C90.1177 165.378 89.9269 164.709 89.4977 164.422C89.1161 164.135 88.1623 163.944 86.6838 163.848V163.179H92.1208H97.5578V163.848C96.0793 163.896 95.1255 164.135 94.7439 164.566C94.3624 164.996 94.1716 165.952 94.1716 167.434V178.097C94.1716 179.58 94.3624 180.536 94.7439 180.966C95.1255 181.397 96.0793 181.636 97.5578 181.683V182.401H92.1208H86.6838V181.683C88.1623 181.588 89.1161 181.444 89.4977 181.11C89.8792 180.823 90.1177 180.153 90.1177 179.101V173.364H79.0053V179.101C79.0053 180.153 79.196 180.823 79.6253 181.11C80.0068 181.397 80.9607 181.588 82.4391 181.683V182.401H77.0022H71.5652V181.683C73.0436 181.636 73.9975 181.397 74.3791 180.966C74.7606 180.536 74.9514 179.58 74.9514 178.097ZM102.852 179.101L111.961 162.653H112.39H112.82L122.215 179.627C122.692 180.488 123.121 181.014 123.503 181.253C123.884 181.492 124.552 181.636 125.458 181.683V182.401H120.689H115.92V181.683C117.016 181.683 117.732 181.54 118.018 181.205C118.304 180.871 118.257 180.345 117.827 179.627L115.776 175.898H106.429L104.807 178.862C104.282 179.819 104.187 180.536 104.521 180.966C104.855 181.397 105.666 181.636 107.001 181.731V182.448H103.138H99.2747V181.731C100.181 181.636 100.849 181.397 101.278 181.11C101.802 180.775 102.279 180.106 102.852 179.101ZM111.246 167.387L107.239 174.655H115.252L111.246 167.387Z" fill="black"/>
</svg>
